#!OML:ASF H:\ManfredETheater\Project 1\Capture day 1\Session 1\subject.ASF
:FULLY-SPECIFIED
:DEGREES
465
root -2.17503 15.1184 26.2122 28.7911 2.82664 -5.55008
lowerback 22.1081 -1.26721 5.57357
upperback -0.460206 0.0983639 2.39623
thorax -13.0028 -0.223191 -0.513298
lowerneck -17.8283 -1.0206 -2.1954
upperneck -10.3824 -0.91318 2.17498
head -0.347611 -0.369724 1.00861
rclavicle -4.05024e-015 -1.19271e-014
rhumerus -42.7452 -1.51254 -85.7338
rradius 80.8866
rwrist -8.336
rhand -28.7417 -1.99946
rfingers 7.12502
rthumb -2.10225 -31.9689
lclavicle -4.05024e-015 -1.19271e-014
lhumerus -42.3943 -8.59598 94.422
lradius 68.2415
lwrist 2.33986
lhand -30.4265 -18.2333
lfingers 7.12502
lthumb -3.72932 11.7138
rfemur -49.3982 -5.44943 29.6594
rtibia 70.1267
rfoot -35.1434 -10.9489
rtoes -42.7594
lfemur -36.2812 4.6654 -17.0419
ltibia 90.222
lfoot -9.00827 -5.43646
ltoes -16.2898
466
root -2.14234 15.1163 26.5712 28.5064 2.86614 -5.85598
lowerback 21.9051 -1.07656 5.78655
upperback -0.513626 0.395532 2.43499
thorax -12.9338 -0.099592 -0.688911
lowerneck -17.8475 -0.992258 -2.11142
upperneck -9.97061 -0.894135 2.04987
head -0.212183 -0.362532 0.955037
rclavicle -5.46037e-015 -3.54085e-016
rhumerus -42.6627 -0.378806 -86.7575
rradius 83.0553
rwrist -8.02777
rhand -28.2361 -1.14841
rfingers 7.12502
rthumb -1.61398 -31.1221
lclavicle -5.46037e-015 -3.54085e-016
lhumerus -44.02 -8.89718 94.6078
lradius 68.7682
lwrist 2.62177
lhand -30.6355 -18.0499
lfingers 7.12502
lthumb -3.93116 11.8936
rfemur -46.9349 -5.21371 29.5982
rtibia 69.0419
rfoot -35.5745 -11.4316
rtoes -43.3252
lfemur -39.7048 5.71109 -16.5578
ltibia 92.9399
lfoot -10.6977 -4.95208
ltoes -16.2257
467
root -2.11117 15.1135 26.9373 28.2287 2.97261 -6.09386
lowerback 21.625 -0.892918 5.95379
upperback -0.564308 0.662056 2.45507
thorax -12.8171 0.0138116 -0.848559
lowerneck -17.8869 -1.00497 -2.04878
upperneck -9.54634 -0.922969 2.00551
head -0.0673472 -0.377732 0.928806
rclavicle -2.28602e-015 -4.84538e-015
rhumerus -42.7362 0.793691 -87.7761
rradius 85.4698
rwrist -7.69762
rhand -27.6645 -0.274112
rfingers 7.12502
rthumb -1.06191 -30.2512
lclavicle -2.28602e-015 -4.84538e-015
lhumerus -45.8091 -9.34656 94.7768
lradius 69.6887
lwrist 2.5403
lhand -30.78 -17.84
lfingers 7.12502
lthumb -4.07068 12.1008
rfemur -44.4082 -5.02489 29.5116
rtibia 67.8256
rfoot -35.9307 -11.8732
rtoes -43.8717
lfemur -43.2306 6.66392 -16.2075
ltibia 95.2664
lfoot -12.13 -4.49205
ltoes -16.129
468
root -2.08063 15.1131 27.313 27.9319 3.17684 -6.27468
lowerback 21.2923 -0.729894 6.10959
upperback -0.606889 0.891209 2.46224
thorax -12.6614 0.112037 -1.00249
lowerneck -17.9375 -1.06086 -2.0076
upperneck -9.12017 -1.00351 2.03358
head 0.0822198 -0.417131 0.926786
rclavicle -8.39865e-015 -1.70458e-014
rhumerus -42.9448 2.00006 -88.7765
rradius 88.066
rwrist -7.39014
rhand -27.0642 0.627077
rfingers 7.12502
rthumb -0.482111 -29.3521
lclavicle -8.39865e-015 -1.70458e-014
lhumerus -47.7204 -9.9126 94.937
lradius 70.9346
lwrist 2.21345
lhand -30.8569 -17.6178
lfingers 7.12502
lthumb -4.14499 12.3216
rfemur -41.7565 -4.89901 29.4142
rtibia 66.4262
rfoot -36.1802 -12.2715
rtoes -44.4403
lfemur -46.7908 7.46119 -15.9784
ltibia 97.1411
lfoot -13.3188 -4.10837
ltoes -16.0367
469
root -2.05037 15.1174 27.6998 27.6335 3.46689 -6.41802
lowerback 20.8877 -0.579102 6.25692
upperback -0.646468 1.09393 2.46251
thorax -12.461 0.200377 -1.14877
lowerneck -17.9918 -1.15938 -1.99003
upperneck -8.69465 -1.13564 2.12349
head 0.234651 -0.480559 0.945719
rclavicle 3.97569e-016 -2.48481e-015
rhumerus -43.2665 3.22514 -89.7421
rradius 90.7757
rwrist -7.08876
rhand -26.4429 1.52977
rfingers 7.12502
rthumb 0.117963 -28.4499
lclavicle 3.97569e-016 -2.48481e-015
lhumerus -49.7165 -10.5609 95.0963
lradius 72.4296
lwrist 1.78442
lhand -30.8742 -17.4257
lfingers 7.12502
lthumb -4.16167 12.5134
rfemur -38.9804 -4.80251 29.3157
rtibia 64.8007
rfoot -36.2742 -12.5894
rtoes -45.0293
lfemur -50.3533 8.09476 -15.8676
ltibia 98.5168
lfoot -14.2841 -3.83727
ltoes -16.0291
470
root -2.01933 15.1294 28.1001 27.3169 3.85764 -6.5458
lowerback 20.4252 -0.447283 6.42926
upperback -0.682645 1.27147 2.46428
thorax -12.2235 0.277553 -1.2971
lowerneck -18.0375 -1.29798 -1.99561
upperneck -8.27143 -1.31705 2.25863
head 0.387519 -0.56702 0.980156
rclavicle -4.17448e-015 1.83876e-014
rhumerus -43.6909 4.44772 -90.6616
rradius 93.5313
rwrist -6.78479
rhand -25.8425 2.4286
rfingers 7.12502
rthumb 0.697825 -27.55
lclavicle -4.17448e-015 1.83876e-014
lhumerus -51.7649 -11.258 95.2619
lradius 74.1008
lwrist 1.3899
lhand -30.8454 -17.2777
lfingers 7.12502
lthumb -4.13387 12.6619
rfemur -36.0365 -4.73585 29.2384
rtibia 62.9025
rfoot -36.1695 -12.7971
rtoes -45.6593
lfemur -53.829 8.53145 -15.8422
ltibia 99.3483
lfoot -15.049 -3.70069
ltoes -16.1024
